<?xml version="1.0" standalone="yes"?>
<svg xmlns="http://www.w3.org/2000/svg" width="1280" height="1280">
<path style="fill:#b2b2b2; stroke:none;" d="M0 0L0 368L24 368L24 360L32 360L32 368L40 368L40 360L72 360L72 352C76.0875 352 83.2165 350.581 87 352C88.4741 352.553 87.8276 353.414 89 354L89 352C90.7477 355.047 91.7691 357.474 92 361C96.3193 354.934 97.6361 346.08 99.7693 339C104.962 321.766 110.086 304.652 113.804 287C128.222 218.554 134.862 149.556 117 81C111.672 60.5488 103.658 40.6777 93.777 22.0039C90.4956 15.8022 86.3142 5.21594 80.331 1.31787C75.0683 -2.11084 64.0807 0 58 0L0 0z"/>
<path style="fill:#7f7f7f; stroke:none;" d="M80 0C83.5512 6.87512 88.4369 13.2244 92.2199 20.0393C101.717 37.1481 109.991 56.1167 115.255 75C142.548 172.918 121.042 272.46 91 367C108.029 366.267 124.739 362.047 142 364.289C194.764 371.143 241.935 398.216 271.644 443C279.274 454.502 285.05 467.169 290 480C295.182 469.221 297.507 456.347 301.541 445C311.03 418.31 319.513 391.491 326.475 364C349.458 273.234 361.279 178.288 347.83 85C343.661 56.0796 335.476 28.1755 328 0L80 0z"/>
<path style="fill:#b2b2b2; stroke:none;" d="M328 0C331.068 18.1107 338.026 35.976 341.986 54C349.272 87.1598 352.185 121.148 353.015 155C353.212 163.036 354.315 170.899 353.961 179C352.643 209.087 349.775 239.095 345.841 269C343.894 283.8 337.875 299.322 342 314C350.807 309.102 366.092 312 376 312L376 304L410 304C410.267 313.048 414.275 321.884 415 331C417.591 324.361 413.252 313.872 412.081 307C408.496 285.971 403.448 265.053 400.015 244C396.985 225.42 396.794 206.436 393.536 188C390.845 172.768 386.002 158.039 383.26 142.911C381.111 131.057 379.99 118.879 377.629 107C376.16 99.61 373.56 92.2949 372.259 84.9105C371.291 79.4111 372.735 73.6639 371.741 68.1698C369.367 55.0515 364.95 41.9635 362.245 28.9105C360.268 19.3691 359.778 9.57104 358 0L328 0z"/>
<path style="fill:#e7e7e7; stroke:none;" d="M358 0C360.342 18.5325 363.598 36.7471 367.626 54.9607C368.679 59.725 370.895 64.2758 371.741 69.0895C372.707 74.5894 371.263 80.3363 372.259 85.8302C373.603 93.2422 376.154 100.578 377.629 108C378.677 113.274 378.63 118.724 379.619 124C382.695 140.41 386.248 156.656 389.376 173C390.409 178.397 392.575 183.561 393.536 189C396.847 207.736 396.645 227.205 400.171 246C404.867 271.04 410.044 295.878 414.576 321C415.768 327.613 415.762 334.329 417.039 340.911C418.601 348.956 421.373 356.894 422.742 365C426.329 386.249 428.941 407.741 432.594 428.985C438.495 463.297 445.958 497.529 451.715 532C455.116 552.372 458.402 572.84 462.522 593C464.622 603.27 465.365 613.816 468 624L471 624C481.88 608.554 499.396 595.438 513.997 583.6C550.817 553.751 592.111 529.415 636 511.548C685.773 491.286 740.194 478.395 794 476.039C894.448 471.641 993.993 499.334 1079 552.533C1131.08 585.125 1175.63 629.413 1211.49 678.999C1240.56 719.209 1265.32 765.056 1279 813C1281.6 806.806 1280 797.686 1280 791L1280 743L1280 577L1280 0L358 0z"/>
<path style="fill:#949494; stroke:none;" d="M353 160L353 184C355.349 178.403 355.349 165.597 353 160M376 304L376 312L354 312C349.681 312 345.634 311.455 342 314C341.493 311.564 340.88 309.326 340 307C336.958 313.328 336.912 321.199 335.258 328C330.981 345.588 327.37 363.66 322.23 381C315.056 405.203 306.546 428.882 298.921 452.911C296.329 461.078 291.598 469.33 291.093 478C290.63 485.957 294.584 494.301 296.349 502C299.673 516.506 302.322 532.078 300.829 547C299.394 561.356 296.521 576.311 291.924 590C287.904 601.974 281.872 614.505 280 627C278.154 626.974 277.734 627.17 276 628L277 631C272.096 631.226 272.367 634.159 269.936 637.702C268.71 639.488 266.681 640.441 265.488 642.259C263.154 645.815 262.281 649.001 259 652C259 653.797 259.014 653.521 260 655C249.25 659.625 252.304 679.312 253.576 689C255.313 702.23 255.03 715.762 257.194 729C260.07 746.584 264.335 764.197 270.308 781C277.351 800.815 285.913 820.581 297.259 838.425C335.07 897.887 392.437 940.548 453.83 972.978C479.715 986.651 506.193 1000.53 534 1010C533.957 994.528 533.713 977.209 530.622 962C528.241 950.284 523.193 939.337 520.455 927.83C518.568 919.901 519.085 911.098 517.679 903C516.05 893.622 512.972 884.216 511.726 874.83C510.421 865.001 510.229 854.742 508.557 845.015C505.802 828.989 501.197 813.177 499.184 797C497.896 786.654 497.112 776.29 495.71 766.004C495.237 762.535 493.535 759.41 493.129 755.961C492.352 749.365 493.052 742.609 491.657 736.039C491.099 733.409 489.346 731.426 488.549 728.911C486.965 723.911 486.126 717.231 485.259 712C483.013 698.447 482.013 684.49 479.74 671C478.658 664.577 475.659 658.425 474.371 652C473.137 645.839 473.124 639.108 471.585 633.09C470.396 628.443 467.206 624.913 466.201 619.999C455.902 569.67 448.474 518.624 439.679 468C432.79 428.346 426.21 388.596 419.406 349.015C416.867 334.247 410.969 318.926 410 304L376 304M72 352L72 360L40 360L40 368L32 368L32 360L24 360L24 368L0 368L0 417C7.38149 411.847 13.8578 405.207 21 399.665C30.3377 392.419 40.4511 386.518 51 381.247C59.3438 377.078 68.0885 373.784 77 371.026C80.923 369.811 86.3527 369.512 89.7207 367.062C94.6827 363.454 91.6245 356.539 90 352C88.8045 352.598 89.0227 352.466 88 354C84.7995 350.337 76.6006 352 72 352z"/>
<path style="fill:#b2b2b2; stroke:none;" d="M420 355L420 361C420.951 358.715 420.951 357.285 420 355M421 361C421.028 364.422 421.375 367.637 422 371C423.467 367.503 423.292 364.025 421 361M110 364C111.769 364.779 113.036 364.912 115 365C113.231 364.221 111.964 364.088 110 364z"/>
<path style="fill:#e7e7e7; stroke:none;" d="M115 364.424C104.639 365.785 94.2407 366.529 84 368.887C63.1618 373.686 43.5365 383.277 26 395.341C18.0821 400.788 6.88113 407.799 1.60262 416.015C-0.325765 419.016 0.00153609 422.587 0 426L0 445L0 519L0 616L0 644C0 648.344 -0.870616 653.867 0.742284 657.985C2.22527 661.772 6.09774 664.348 9 667C16.7589 674.091 24.9752 680.411 34 685.799C71.0616 707.929 111.373 715.454 154 709.711C177.106 706.599 200.522 697.325 220 684.655C272.712 650.368 304.225 589.001 299.91 526C294.533 447.479 233.86 379.505 156 366.754C142.779 364.589 128.372 362.669 115 364.424z"/>
<path style="fill:#b2b2b2; stroke:none;" d="M136 364C137.248 364.685 137.548 364.749 139 365C137.751 364.315 137.452 364.251 136 364z"/>
<path style="fill:#949494; stroke:none;" d="M139 364C140.769 364.779 142.036 364.912 144 365C142.231 364.221 140.964 364.088 139 364z"/>
<path style="fill:#b2b2b2; stroke:none;" d="M101 365C102.248 365.685 102.549 365.749 104 366C102.751 365.315 102.452 365.251 101 365M147.667 365.333C147.222 365.778 148.278 365.722 148.333 365.667C148.778 365.222 147.722 365.278 147.667 365.333M96.6667 366.333C96.2222 366.778 97.2778 366.722 97.3333 366.667C97.7778 366.222 96.7222 366.278 96.6667 366.333M154 366C155.248 366.685 155.549 366.749 157 367C155.752 366.315 155.452 366.251 154 366M90.6667 367.333C90.2223 367.778 91.2776 367.722 91.3333 367.667C91.7778 367.222 90.7222 367.278 90.6667 367.333M160.667 367.333C160.222 367.778 161.278 367.722 161.333 367.667C161.778 367.222 160.722 367.278 160.667 367.333z"/>
<path style="fill:#949494; stroke:none;" d="M169.667 369.333C169.222 369.778 170.278 369.722 170.333 369.667C170.778 369.222 169.722 369.278 169.667 369.333M176.667 371.333C176.222 371.778 177.278 371.722 177.333 371.667C177.778 371.222 176.722 371.278 176.667 371.333z"/>
<path style="fill:#b2b2b2; stroke:none;" d="M423 372L423 378C423.951 375.715 423.951 374.285 423 372z"/>
<path style="fill:#949494; stroke:none;" d="M182.667 373.333C182.222 373.778 183.278 373.722 183.333 373.667C183.778 373.222 182.722 373.278 182.667 373.333z"/>
<path style="fill:#b2b2b2; stroke:none;" d="M193 377L194 378L193 377M195 378L196 379L195 378M424 379L424 384C424.83 381.969 424.83 381.03 424 379M213 387L214 388L213 387M218 390L219 391L218 390M426 390L427 400C428.389 396.593 427.703 393.204 426 390M219 391L220 392L219 391M221 392L222 393L221 392M231 399L232 400L231 399M428 401L428 406C428.83 403.969 428.83 403.03 428 401M236 403L237 404L236 403M237 404L238 405L237 404M429 406L429 411C429.83 408.97 429.83 408.031 429 406M243 409L244 410L243 409M244 410L245 411L244 410M245 411L246 412L245 411M430 411L431 424C432.57 420.15 431.624 414.766 430 411M246 412L247 413L246 412M247 413L248 414L247 413M250 416L251 417L250 416M251 417L252 418L251 417M252 418L253 419L252 418M253 419L254 420L253 419M254 420L255 421L254 420M259 426L260 427L259 426M263 431L264 432L263 431M264 432L265 433L264 432M434 434L435 447C436.653 443.024 435.735 437.865 434 434M266 435L267 436L266 435M271 442L272 443L271 442M273 445L274 446L273 445M274 447L275 448L274 447M436 447L437 458C438.546 454.308 438.042 450.409 436 447M438 459L438 464C438.83 461.969 438.83 461.031 438 459M285 468L286 469L285 468M440 469L441 480C442.46 476.421 441.649 472.43 440 469M471 624C469.42 623.316 469.223 623.195 468 622C466.238 626.52 469.938 629.006 471.312 633.09C472.878 637.745 473.098 644.077 473.831 649C475.006 656.886 478.429 664.22 479.74 672C482.907 690.794 483.963 710.307 488.299 728.911C488.974 731.808 491.043 734.065 491.657 737.015C493.083 743.863 492.019 751.04 493.259 757.83C496.471 775.416 498.406 793.242 501.303 810.985C503.208 822.649 506.572 834.305 508.557 846.004C510.209 855.735 509.66 865.991 511.53 875.714C513.355 885.203 516.02 894.447 517.679 904C519.043 911.852 518.843 920.043 520.259 927.83C521.105 932.48 523.597 936.598 525.089 941.015C527.383 947.807 529.193 955.97 530.622 963C533.713 978.209 533.957 995.528 534 1011C544.352 1013.21 554.134 1018.12 564 1021.84C582.244 1028.72 600.104 1035.87 618 1043.54C691.537 1075.04 762.525 1115.53 823.001 1168.29C848.9 1190.88 874.447 1215.68 895.405 1243C902.209 1251.87 908.888 1260.83 915.279 1270C917.627 1273.37 919.807 1278.69 924.185 1279.72C930.251 1281.16 937.781 1280 944 1280L985 1280L1116 1280L1163 1280C1168.51 1280 1177.03 1281.59 1181.83 1278.44C1187.21 1274.9 1190.84 1268.42 1194.92 1263.58C1207.75 1248.34 1219.04 1231.85 1229.58 1214.96C1243.54 1192.61 1255.24 1169.28 1265.42 1145C1270.66 1132.52 1277.44 1118.4 1279.67 1105C1280.75 1098.56 1280 1091.51 1280 1085L1280 1048L1280 932L1280 851C1280 838.935 1282.5 823.645 1279.21 812C1270.68 781.767 1256.52 752.338 1241.31 725C1205.44 660.532 1154.96 603.735 1094 561.888C986.106 487.821 848.361 458.494 720 485.789C649.882 500.699 585.867 529.909 528 572.116C513.44 582.736 499.865 594.501 486.7 606.808C481.156 611.991 474.254 617.021 471 624M290.333 480.667C290.278 480.722 290.222 481.778 290.667 481.333C290.722 481.278 290.778 480.222 290.333 480.667M442 480L442 486C442.951 483.715 442.951 482.285 442 480M443 486C443.031 489.735 443.533 493.305 444 497C445.46 493.421 444.649 489.43 443 486M445 497L445 504C446.059 501.466 446.059 499.534 445 497M296.333 502.667C296.278 502.722 296.222 503.778 296.667 503.333C296.722 503.278 296.778 502.222 296.333 502.667M446 504L447 514C448.299 510.671 447.527 507.177 446 504M297 507L297 510C297.696 508.446 297.696 508.554 297 507M298 512L298 515C298.696 513.446 298.696 513.554 298 512M448 515L448 520C448.83 517.969 448.83 517.03 448 515M449 520L449 526C449.951 523.715 449.951 522.285 449 520z"/>
<path style="fill:#7f7f7f; stroke:none;" d="M300 523L300 550C302.541 543.945 302.541 529.055 300 523z"/>
<path style="fill:#b2b2b2; stroke:none;" d="M450 526L451 537C452.519 533.346 451.833 529.447 450 526M452 537L452 544C453.059 541.466 453.059 539.534 452 537M453 544C453.112 549.432 454.571 554.608 455 560C456.861 555.438 455.272 548.271 453 544M299 548L299 555C300.059 552.466 300.059 550.534 299 548M298 560L298 563C298.696 561.446 298.696 561.554 298 560M456 560L456 566C456.951 563.715 456.951 562.285 456 560M297.333 566.667C297.278 566.722 297.222 567.778 297.667 567.333C297.722 567.278 297.778 566.222 297.333 566.667M457 566C457.031 569.735 457.533 573.305 458 577C459.46 573.421 458.649 569.43 457 566M296.333 572.667C296.278 572.722 296.222 573.778 296.667 573.333C296.722 573.278 296.778 572.222 296.333 572.667M295.333 576.667C295.278 576.722 295.222 577.778 295.667 577.333C295.722 577.278 295.778 576.222 295.333 576.667M459 578L459 584C459.951 581.715 459.951 580.285 459 578M461 588C461.011 592.08 461.49 595.963 462 600C463.629 596.109 462.956 591.68 461 588M463 600L464 611C465.519 607.346 464.833 603.447 463 600M285.333 606.667C285.278 606.722 285.222 607.778 285.667 607.333C285.722 607.278 285.778 606.222 285.333 606.667z"/>
<path style="fill:#7f7f7f; stroke:none;" d="M284 610C281.035 617.122 276.171 623.62 274 631L277 631C277 629.203 276.986 629.478 276 628C278.979 627.404 277.733 626.433 280 627C281.399 621.095 284.226 615.758 286 610L284 610z"/>
<path style="fill:#b2b2b2; stroke:none;" d="M465 611L465 617C465.951 614.715 465.951 613.285 465 611M466 617L466 622C466.83 619.97 466.83 619.03 466 617M273 630L274 631L273 630z"/>
<path style="fill:#7f7f7f; stroke:none;" d="M271 634C269.739 636.01 268.81 637.778 268 640C270.41 638.408 271.483 636.901 271 634z"/>
<path style="fill:#b2b2b2; stroke:none;" d="M269 636L270 637L269 636M267 639L268 640L267 639M264 643L265 644L264 643z"/>
<path style="fill:#7f7f7f; stroke:none;" d="M28 683C29.34 699.979 29.5515 717.018 31.1698 734C35.3925 778.313 44.9976 823.126 60.8202 864.83C77.6732 909.25 100.518 952.483 128.785 990.714C209.747 1100.21 331.53 1173.54 456.715 1221.68C486.668 1233.2 516.467 1244.23 545.829 1257.02C556.081 1261.49 565.819 1267.46 575.911 1272.32C580.832 1274.69 585.488 1277.41 591 1278C589.996 1276.39 589.803 1275.96 590 1274C587.821 1273.27 588.22 1273.56 589 1272C583.509 1268.48 584.198 1258.84 582.731 1253C580.221 1243.02 579.829 1233.14 577.755 1223.17C575.664 1213.11 573.115 1202.3 575 1192C571.358 1187.37 571.982 1180.69 570.896 1175.09C570.403 1172.55 568.89 1170.46 568.284 1167.96C566.061 1158.8 565.768 1149.29 564.246 1140C563.389 1134.77 561.222 1130 560.263 1124.91C557.881 1112.27 558.24 1098.7 555.302 1086.09C554.706 1083.53 552.889 1081.53 552.299 1078.96C549.806 1068.11 548.909 1056.94 546.965 1046C545.123 1035.64 542.007 1025.71 542 1015L546 1016C543.501 1012.89 538.647 1011.92 535 1010.38C526.114 1006.61 517.174 1003.03 508.285 999.29C483.582 988.906 459.395 976.406 436.039 963.335C358.396 919.882 291.943 853.727 266.23 767C261.796 752.044 258.127 736.509 256.285 721C254.986 710.06 255.004 698.882 253.576 688C252.201 677.529 249.925 661.366 260 655L259 652C261.921 650.171 263.35 648.015 265 645C258.169 648.459 253.468 656.643 248 661.985C237.861 671.892 226.302 681.047 214 688.128C172.705 711.898 122.816 719.156 77 704.974C67.4287 702.012 57.9205 698.471 49 693.892C42.2331 690.418 35.3249 684.885 28 683z"/>
<path style="fill:#b2b2b2; stroke:none;" d="M260 648L261 649L260 648M255 654L256 655L255 654M254 655L255 656L254 655M253 656L254 657L253 656M252 657L253 658L252 657M0 658L1 659L0 658M251 658L252 659L251 658z"/>
<path style="fill:#949494; stroke:none;" d="M0 659L0 1280L583 1280C583.081 1278.11 583.134 1277.62 584 1276C564.176 1265.35 543.86 1256 523.089 1247.41C518.545 1245.53 514.39 1242.6 509.83 1240.84C486.413 1231.77 462.418 1223.77 439 1214.54C407.563 1202.14 377.166 1186.67 347.09 1171.6C332.882 1164.48 319.669 1155.3 306.039 1147.17C238.74 1107.06 174.895 1053.8 128.785 989.83C93.6969 941.148 67.4142 887.374 50.1157 830C39.7212 795.524 34.2354 760.758 30.8302 725C29.5252 711.295 26.8239 695.672 29 682C18.455 675.433 10.1986 665.974 0 659z"/>
<path style="fill:#b2b2b2; stroke:none;" d="M250 659L251 660L250 659M249 660L250 661L249 660M248 661L249 662L248 661M247 662L248 663L247 662M5 663L6 664L5 663M246 663L247 664L246 663M245 664L246 665L245 664M244 665L245 666L244 665z"/>
<path style="fill:#949494; stroke:none;" d="M243 666L244 667L243 666z"/>
<path style="fill:#b2b2b2; stroke:none;" d="M237 671L238 672L237 671M236 672L237 673L236 672M231 676L232 677L231 676z"/>
<path style="fill:#949494; stroke:none;" d="M230 677L231 678L230 677z"/>
<path style="fill:#b2b2b2; stroke:none;" d="M228 678L229 679L228 678z"/>
<path style="fill:#949494; stroke:none;" d="M227 679L228 680L227 679z"/>
<path style="fill:#b2b2b2; stroke:none;" d="M221 683L222 684L221 683M33 685L34 686L33 685M218 685L219 686L218 685M35 686L36 687L35 686z"/>
<path style="fill:#949494; stroke:none;" d="M215 687L216 688L215 687z"/>
<path style="fill:#b2b2b2; stroke:none;" d="M38 688L39 689L38 688z"/>
<path style="fill:#949494; stroke:none;" d="M213 688L214 689L213 688z"/>
<path style="fill:#b2b2b2; stroke:none;" d="M40 689L41 690L40 689M211 689L212 690L211 689M42 690L43 691L42 690M209 690L210 691L209 690z"/>
<path style="fill:#949494; stroke:none;" d="M206 692L207 693L206 692M204 693L205 694L204 693M49 694L50 695L49 694z"/>
<path style="fill:#b2b2b2; stroke:none;" d="M195 697L196 698L195 697M58 698L59 699L58 698M193 698L194 699L193 698z"/>
<path style="fill:#949494; stroke:none;" d="M190.667 699.333C190.222 699.778 191.278 699.722 191.333 699.667C191.778 699.222 190.722 699.278 190.667 699.333M182.667 702.333C182.222 702.778 183.278 702.722 183.333 702.667C183.778 702.222 182.722 702.278 182.667 702.333M176.667 704.333C176.222 704.778 177.278 704.722 177.333 704.667C177.778 704.222 176.722 704.278 176.667 704.333z"/>
<path style="fill:#b2b2b2; stroke:none;" d="M173 705L174 706L173 705M168.667 706.333C168.222 706.778 169.278 706.722 169.333 706.667C169.778 706.222 168.722 706.278 168.667 706.333z"/>
<path style="fill:#949494; stroke:none;" d="M165.667 707.333C165.222 707.778 166.278 707.722 166.333 707.667C166.778 707.222 165.722 707.278 165.667 707.333z"/>
<path style="fill:#b2b2b2; stroke:none;" d="M90.6667 708.333C90.2222 708.778 91.2778 708.722 91.3333 708.667C91.7778 708.222 90.7222 708.278 90.6667 708.333M160.667 708.333C160.222 708.778 161.278 708.722 161.333 708.667C161.778 708.222 160.722 708.278 160.667 708.333z"/>
<path style="fill:#949494; stroke:none;" d="M94.6667 709.333C94.2222 709.778 95.2778 709.722 95.3333 709.667C95.7777 709.222 94.7223 709.278 94.6667 709.333z"/>
<path style="fill:#b2b2b2; stroke:none;" d="M96.6667 709.333C96.2222 709.778 97.2778 709.722 97.3333 709.667C97.7777 709.222 96.7223 709.278 96.6667 709.333z"/>
<path style="fill:#949494; stroke:none;" d="M155.667 709.333C155.222 709.778 156.278 709.722 156.333 709.667C156.778 709.222 155.722 709.278 155.667 709.333z"/>
<path style="fill:#b2b2b2; stroke:none;" d="M101 710C102.248 710.685 102.548 710.749 104 711C102.752 710.315 102.452 710.251 101 710M146 710C147.248 710.685 147.548 710.749 149 711C147.752 710.315 147.452 710.251 146 710z"/>
<path style="fill:#949494; stroke:none;" d="M149 710C150.248 710.685 150.548 710.749 152 711C150.752 710.315 150.452 710.251 149 710M109 711C110.248 711.685 110.548 711.749 112 712C110.752 711.315 110.452 711.251 109 711z"/>
<path style="fill:#b2b2b2; stroke:none;" d="M136 711C137.248 711.685 137.548 711.749 139 712C137.752 711.315 137.452 711.251 136 711z"/>
<path style="fill:#949494; stroke:none;" d="M139 711C140.769 711.779 142.036 711.912 144 712C142.231 711.221 140.964 711.088 139 711M542 1015C542.001 1025.97 545.034 1036.08 546.849 1046.72C549.14 1060.15 551.417 1073.03 554.855 1086.09C558.123 1098.5 558.54 1112.27 560.13 1124.91C560.925 1131.23 563.774 1137.52 564.728 1144C565.951 1152.3 566.246 1160.73 568.284 1168.91C568.906 1171.41 570.413 1173.48 570.896 1176.04C571.819 1180.93 570.98 1188.62 575 1192C572.148 1202.6 576.067 1213.73 577.889 1224.03C579.684 1234.18 579.943 1243.93 582.694 1254C583.999 1258.78 583.391 1270.8 589 1272C588.662 1273.67 588.463 1273.31 590 1274C589.719 1276.12 589.4 1275.94 591 1277C589.521 1277.99 589.797 1278 588 1278C594.338 1282.33 606.526 1280 614 1280L678 1280L922 1280C917.42 1269.81 909.421 1260.64 902.656 1251.83C888.396 1233.26 873.19 1215.43 856.45 1199.01C792.951 1136.73 718.412 1087.47 637 1051.67C613.781 1041.46 591.069 1030.71 567 1022.55C558.378 1019.63 551.223 1015.74 542 1015z"/>
<path style="fill:#e7e7e7; stroke:none;" d="M1279 1106C1275.84 1119.32 1270.22 1132.37 1265.01 1145C1249.99 1181.41 1230.1 1214.84 1207.43 1247C1199.34 1258.48 1188.63 1268.27 1181 1280L1280 1280L1280 1158L1280 1123C1280 1117.65 1281.09 1110.97 1279 1106z"/>
<path style="fill:#b2b2b2; stroke:none;" d="M582 1276C583.584 1279.94 586.014 1279.95 590 1280C587.523 1277.71 585.31 1276.64 582 1276z"/>
</svg>
